<svg width="220" height="48" viewBox="0 0 220 48" fill="none" xmlns="http://www.w3.org/2000/svg">
  <rect x="2" y="2" width="44" height="44" rx="10" fill="#06B6D4"/>
  <path d="M12 31V17H18.5C21.6 17 23.5 18.6 23.5 21.5C23.5 24.4 21.6 26 18.5 26H16.5V31H12ZM16.5 22.3H18C19 22.3 19.5 21.9 19.5 21.2C19.5 20.5 19 20.1 18 20.1H16.5V22.3Z" fill="white"/>
  <path d="M29 31V17H37.5C40.8 17 42.8 18.5 42.8 21.2C42.8 23.2 41.7 24.5 39.8 25.1L43.4 31H39L35.9 25.6H33.4V31H29ZM33.4 22H36.8C38.2 22 38.8 21.5 38.8 20.6C38.8 19.8 38.2 19.2 36.8 19.2H33.4V22Z" fill="white"/>
  <path d="M50 31V17H71V20.7H54.3V22.8H69V26.4H54.3V27.3H71V31H50Z" fill="#E2E8F0"/>
  <path d="M85 17L96.1 31H91.4L88.4 26H78.2L75.2 31H70.6L81.8 17H85ZM83.3 22.5L80.2 25.7H86.4L83.3 22.5Z" fill="#F8FAFC"/>
  <path d="M104 31V17H120V20.7H108.3V22.8H118.2V26.4H108.3V27.3H120V31H104Z" fill="#CBD5E1"/>
  <path d="M128 17H132.7L141.3 28.1L149.9 17H154.6L142.7 31H141.2L128 17Z" fill="#F8FAFC"/>
  <path d="M160 31V17H180V20.7H164.3V22.8H178.2V26.4H164.3V27.3H180V31H160Z" fill="#CBD5E1"/>
  <path d="M188 31V17H194.8C200.6 17 203.8 19.8 203.8 24.1C203.8 28.4 200.6 31 194.8 31H188ZM192.3 27.7H194.4C197.5 27.7 199 26.5 199 24.1C199 21.7 197.5 20.5 194.4 20.5H192.3V27.7Z" fill="#F8FAFC"/>
</svg>
